<?xml version="1.0" standalone="no"?>
<!DOCTYPE svg PUBLIC "-//W3C//DTD SVG 20010904//EN"
 "http://www.w3.org/TR/2001/REC-SVG-20010904/DTD/svg10.dtd">
<svg version="1.0" xmlns="http://www.w3.org/2000/svg"
 width="400.000000pt" height="400.000000pt" viewBox="0 0 400.000000 400.000000"
 preserveAspectRatio="xMidYMid meet">
<metadata>
Created by potrace 1.11, written by Peter Selinger 2001-2013
</metadata>
<g transform="translate(0.000000,400.000000) scale(0.100000,-0.100000)"
fill="#000000" stroke="none">
<path d="M861 3951 c-14 -28 -26 -51 -28 -51 -13 0 -78 33 -100 50 -14 11 -29
20 -34 20 -8 0 30 -98 67 -172 20 -39 24 -65 27 -157 l4 -111 -33 -46 c-79
-111 -116 -265 -117 -493 -1 -236 16 -340 81 -488 37 -84 42 -133 13 -133 -26
0 -68 -52 -81 -101 -6 -22 -11 -71 -11 -108 -1 -142 40 -265 126 -379 24 -32
64 -102 88 -154 27 -57 54 -101 67 -108 24 -13 65 -16 95 -7 18 6 24 -5 54
-96 38 -117 111 -272 171 -367 23 -36 84 -106 137 -157 l96 -91 1 -91 1 -91
-49 -43 c-129 -110 -237 -192 -300 -227 -65 -36 -71 -37 -93 -23 -23 15 -98
12 -133 -7 -8 -4 -44 -11 -80 -15 -36 -4 -74 -9 -84 -11 -11 -2 -56 -8 -100
-15 -246 -33 -387 -93 -509 -216 l-58 -58 1917 -3 c1055 -1 1920 0 1923 3 2 3
-23 34 -58 69 -89 90 -234 162 -386 191 -83 17 -219 35 -289 41 -92 7 -101 8
-141 24 -16 6 -32 11 -35 10 -3 0 -24 2 -48 6 -26 4 -48 2 -54 -4 -8 -8 -20
-6 -42 5 -51 26 -231 165 -325 251 -24 22 -26 29 -25 115 l1 90 96 91 c53 50
114 120 136 155 62 97 135 255 173 368 29 91 35 102 53 96 61 -19 109 7 140
76 10 20 26 56 38 81 11 25 40 72 63 106 91 128 126 229 128 368 1 124 -21
196 -68 217 l-22 10 18 71 c24 95 29 209 12 287 -13 61 -12 70 12 164 74 287
7 524 -214 758 -89 95 -133 128 -204 154 l-60 22 27 21 c15 12 36 22 46 22 11
0 19 5 19 10 0 13 -26 13 -53 -1 -12 -6 5 17 38 51 63 65 46 67 -33 3 l-43
-35 20 51 c15 40 16 51 6 51 -8 0 -23 -24 -34 -52 l-20 -53 0 55 c-1 67 -20
56 -23 -14 -2 -47 -3 -48 -18 -25 -8 13 -28 38 -44 56 l-28 33 -864 0 c-475 0
-864 -3 -864 -7 0 -5 16 -38 34 -75 18 -38 29 -68 25 -68 -4 0 -24 17 -44 38
l-37 37 6 -28 c5 -21 3 -28 -6 -25 -7 3 -20 33 -28 67 l-15 64 -24 -52z"/>
</g>
</svg>
