<?xml version="1.0" encoding="UTF-8"?>
<svg width="161px" height="103px" viewBox="0 0 161 103" version="1.1" xmlns="http://www.w3.org/2000/svg" xmlns:xlink="http://www.w3.org/1999/xlink">
    <!-- Generator: Sketch 52.1 (67048) - http://www.bohemiancoding.com/sketch -->
    <title>Four</title>
    <desc>Created with Sketch.</desc>
    <g id="001" stroke="none" stroke-width="1" fill="none" fill-rule="evenodd">
        <path d="M28.75,0 C28.75,0 17.25,16.5658333 17.25,22.8888889 C17.25,27.2206111 19.7045312,30.9460467 23.2695312,32.8916023 C24.3907813,29.1778801 28.75,22.8888889 28.75,22.8888889 C28.75,22.8888889 33.1092187,29.1778801 34.2304688,32.8916023 C37.7954687,30.9460467 40.25,27.2206111 40.25,22.8888889 C40.25,16.5658333 28.75,0 28.75,0 Z M63.25,0 C63.25,0 51.75,16.5658333 51.75,22.8888889 C51.75,27.2206111 54.2045313,30.9460467 57.7695312,32.8916023 C58.8907813,29.1778801 63.25,22.8888889 63.25,22.8888889 C63.25,22.8888889 67.6092187,29.1778801 68.7304688,32.8916023 C72.2954687,30.9460467 74.75,27.2206111 74.75,22.8888889 C74.75,16.5658333 63.25,0 63.25,0 Z M97.75,0 C97.75,0 86.25,16.5658333 86.25,22.8888889 C86.25,27.2206111 88.7045313,30.9460467 92.2695313,32.8916023 C93.3907813,29.1778801 97.75,22.8888889 97.75,22.8888889 C97.75,22.8888889 102.109219,29.1778801 103.230469,32.8916023 C106.795469,30.9460467 109.25,27.2206111 109.25,22.8888889 C109.25,16.5658333 97.75,0 97.75,0 Z M132.25,0 C132.25,0 120.75,16.5658333 120.75,22.8888889 C120.75,27.2206111 123.204531,30.9460467 126.769531,32.8916023 C127.890781,29.1778801 132.25,22.8888889 132.25,22.8888889 C132.25,22.8888889 136.609219,29.1778801 137.730469,32.8916023 C141.295469,30.9460467 143.75,27.2206111 143.75,22.8888889 C143.75,16.5658333 132.25,0 132.25,0 Z M11.5,45.7777778 C9.42634348,45.7485928 7.49753215,46.8328142 6.4521456,48.6152724 C5.40675905,50.3977306 5.40675905,52.6022694 6.4521456,54.3847276 C7.49753215,56.1671858 9.42634348,57.2514072 11.5,57.2222222 C11.5,57.2222222 0.22791275,74.1138674 0.03369155,96.7077929 C0.032008525,96.9035845 0,97.0811279 0,97.2777778 C0,100.438074 2.57436269,103 5.75,103 L155.25,103 C158.425637,103 161,100.438074 161,97.2777778 C160.999862,97.0724271 160.988615,96.8672327 160.966311,96.6630852 C160.757189,74.0922146 149.5,57.2222222 149.5,57.2222222 C151.573657,57.2514072 153.502468,56.1671858 154.547854,54.3847276 C155.593241,52.6022694 155.593241,50.3977306 154.547854,48.6152724 C153.502468,46.8328142 151.573657,45.7485928 149.5,45.7777778 L11.5,45.7777778 Z M23,57.2222222 L34.5,57.2222222 L34.5,62.9444444 C34.5,66.1031111 31.924,68.6666667 28.75,68.6666667 C25.576,68.6666667 23,66.1031111 23,62.9444444 L23,57.2222222 Z M57.5,57.2222222 L69,57.2222222 L69,62.9444444 C69,66.1031111 66.424,68.6666667 63.25,68.6666667 C60.076,68.6666667 57.5,66.1031111 57.5,62.9444444 L57.5,57.2222222 Z M92,57.2222222 L103.5,57.2222222 L103.5,62.9444444 C103.5,66.1031111 100.924,68.6666667 97.75,68.6666667 C94.576,68.6666667 92,66.1031111 92,62.9444444 L92,57.2222222 Z M126.5,57.2222222 L138,57.2222222 L138,62.9444444 C138,66.1031111 135.424,68.6666667 132.25,68.6666667 C129.076,68.6666667 126.5,66.1031111 126.5,62.9444444 L126.5,57.2222222 Z" id="Four" fill="#FFFFFF" fill-rule="nonzero"></path>
    </g>
</svg>